<svg width="345" height="140" viewBox="0 0 345 140" fill="none" xmlns="http://www.w3.org/2000/svg">
<rect x="0.5" y="0.5" width="139" height="139" rx="9.5" fill="white" stroke="#CBBEAE"/>
<path d="M0.5 125.5H139.5V130C139.5 135.247 135.247 139.5 130 139.5H10C4.7533 139.5 0.5 135.247 0.5 130V125.5Z" fill="url(#paint0_linear)" stroke="#CBBEAE"/>
<path d="M24.944 52.144C23.648 52.144 22.488 51.8 21.464 51.112C20.456 50.424 19.664 49.44 19.088 48.16C18.528 46.864 18.248 45.344 18.248 43.6C18.248 41.856 18.528 40.344 19.088 39.064C19.664 37.768 20.456 36.776 21.464 36.088C22.488 35.4 23.648 35.056 24.944 35.056C26.24 35.056 27.392 35.4 28.4 36.088C29.424 36.776 30.224 37.768 30.8 39.064C31.376 40.344 31.664 41.856 31.664 43.6C31.664 45.344 31.376 46.864 30.8 48.16C30.224 49.44 29.424 50.424 28.4 51.112C27.392 51.8 26.24 52.144 24.944 52.144ZM24.944 50.56C25.92 50.56 26.776 50.288 27.512 49.744C28.264 49.2 28.848 48.408 29.264 47.368C29.68 46.328 29.888 45.072 29.888 43.6C29.888 42.128 29.68 40.872 29.264 39.832C28.848 38.792 28.264 38 27.512 37.456C26.776 36.912 25.92 36.64 24.944 36.64C23.968 36.64 23.104 36.912 22.352 37.456C21.616 38 21.04 38.792 20.624 39.832C20.208 40.872 20 42.128 20 43.6C20 45.072 20.208 46.328 20.624 47.368C21.04 48.408 21.616 49.2 22.352 49.744C23.104 50.288 23.968 50.56 24.944 50.56ZM38.7478 35.2V52H37.0198V36.736H33.0598V35.2H38.7478Z" fill="#333333"/>
<path d="M63.8 98.496V108H19.736V100.44L47.384 67.104H20.312V57.6H62.72V65.16L35.144 98.496H63.8ZM95.1914 106.128C94.0874 106.944 92.7194 107.568 91.0874 108C89.5034 108.384 87.8234 108.576 86.0474 108.576C81.4394 108.576 77.8634 107.4 75.3194 105.048C72.8234 102.696 71.5754 99.24 71.5754 94.68V78.768H65.5994V70.128H71.5754V60.696H82.8074V70.128H92.4554V78.768H82.8074V94.536C82.8074 96.168 83.2154 97.44 84.0314 98.352C84.8954 99.216 86.0954 99.648 87.6314 99.648C89.4074 99.648 90.9194 99.168 92.1674 98.208L95.1914 106.128Z" fill="#4F4F4F"/>
<path d="M214.904 98.4V108H170.648V100.416L198.776 66.336H171.224V56.736H214.136V64.32L185.912 98.4H214.904ZM245.55 56.16C253.102 56.16 258.862 57.984 262.83 61.632C266.862 65.216 268.878 70.656 268.878 77.952V108H257.55V101.76C256.078 104 253.966 105.728 251.214 106.944C248.526 108.096 245.262 108.672 241.422 108.672C237.582 108.672 234.222 108.032 231.342 106.752C228.462 105.408 226.222 103.584 224.622 101.28C223.086 98.912 222.318 96.256 222.318 93.312C222.318 88.704 224.014 85.024 227.406 82.272C230.862 79.456 236.27 78.048 243.63 78.048H256.878V77.28C256.878 73.696 255.79 70.944 253.614 69.024C251.502 67.104 248.334 66.144 244.11 66.144C241.23 66.144 238.382 66.592 235.566 67.488C232.814 68.384 230.478 69.632 228.558 71.232L223.854 62.496C226.542 60.448 229.774 58.88 233.55 57.792C237.326 56.704 241.326 56.16 245.55 56.16ZM243.918 99.936C246.926 99.936 249.582 99.264 251.886 97.92C254.254 96.512 255.918 94.528 256.878 91.968V86.016H244.494C237.582 86.016 234.126 88.288 234.126 92.832C234.126 95.008 234.99 96.736 236.718 98.016C238.446 99.296 240.846 99.936 243.918 99.936ZM315.094 105.216C313.686 106.368 311.958 107.232 309.91 107.808C307.926 108.384 305.814 108.672 303.574 108.672C297.942 108.672 293.59 107.2 290.518 104.256C287.446 101.312 285.91 97.024 285.91 91.392V66.72H277.462V57.12H285.91V45.408H297.91V57.12H311.638V66.72H297.91V91.104C297.91 93.6 298.518 95.52 299.734 96.864C300.95 98.144 302.71 98.784 305.014 98.784C307.702 98.784 309.942 98.08 311.734 96.672L315.094 105.216ZM324.966 56.736H336.966V108H324.966V56.736ZM331.014 48.288C328.838 48.288 327.014 47.616 325.542 46.272C324.07 44.864 323.334 43.136 323.334 41.088C323.334 39.04 324.07 37.344 325.542 36C327.014 34.592 328.838 33.888 331.014 33.888C333.19 33.888 335.014 34.56 336.486 35.904C337.958 37.184 338.694 38.816 338.694 40.8C338.694 42.912 337.958 44.704 336.486 46.176C335.078 47.584 333.254 48.288 331.014 48.288Z" fill="#4F4F4F"/>
<defs>
<linearGradient id="paint0_linear" x1="70" y1="125" x2="70" y2="140" gradientUnits="userSpaceOnUse">
<stop stop-color="#14C2E7"/>
<stop offset="1" stop-color="#A1E7F5"/>
</linearGradient>
</defs>
</svg>
