<svg width="160" height="81" viewBox="0 0 160 81" fill="none" xmlns="http://www.w3.org/2000/svg">
<path d="M73.048 76.904V80H43.168V77.552L67.936 45.512H43.528V42.416H72.616V44.864L47.776 76.904H73.048Z" fill="black"/>
<path d="M96.5149 42.128C101.171 42.128 104.747 43.328 107.243 45.728C109.739 48.08 110.987 51.56 110.987 56.168V80H107.531V73.304C106.331 75.512 104.579 77.24 102.275 78.488C99.9709 79.688 97.2109 80.288 93.9949 80.288C89.8189 80.288 86.5069 79.304 84.0589 77.336C81.6589 75.368 80.4589 72.776 80.4589 69.56C80.4589 66.44 81.5629 63.92 83.7709 62C86.0269 60.032 89.6029 59.048 94.4989 59.048H107.387V56.024C107.387 52.52 106.427 49.856 104.507 48.032C102.635 46.208 99.8749 45.296 96.2269 45.296C93.7309 45.296 91.3309 45.728 89.0269 46.592C86.7709 47.456 84.8509 48.608 83.2669 50.048L81.4669 47.456C83.3389 45.776 85.5949 44.48 88.2349 43.568C90.8749 42.608 93.6349 42.128 96.5149 42.128ZM94.4989 77.336C97.6189 77.336 100.259 76.616 102.419 75.176C104.627 73.736 106.283 71.648 107.387 68.912V61.856H94.5709C90.8749 61.856 88.1869 62.528 86.5069 63.872C84.8749 65.216 84.0589 67.064 84.0589 69.416C84.0589 71.864 84.9709 73.808 86.7949 75.248C88.6189 76.64 91.1869 77.336 94.4989 77.336Z" fill="black"/>
<path d="M144.467 77.624C143.555 78.488 142.403 79.16 141.011 79.64C139.667 80.072 138.252 80.288 136.764 80.288C133.5 80.288 130.979 79.4 129.203 77.624C127.427 75.8 126.539 73.28 126.539 70.064V45.512H119.628V42.416H126.539V34.208H130.14V42.416H142.091V45.512H130.14V69.704C130.14 72.152 130.716 74.024 131.868 75.32C133.067 76.568 134.82 77.192 137.124 77.192C139.476 77.192 141.419 76.496 142.955 75.104L144.467 77.624Z" fill="black"/>
<path d="M154.507 42.416H158.107V80H154.507V42.416ZM156.307 33.272C155.491 33.272 154.795 33.008 154.219 32.48C153.643 31.904 153.355 31.208 153.355 30.392C153.355 29.576 153.643 28.88 154.219 28.304C154.795 27.728 155.491 27.44 156.307 27.44C157.123 27.44 157.819 27.728 158.395 28.304C158.971 28.832 159.259 29.504 159.259 30.32C159.259 31.136 158.971 31.832 158.395 32.408C157.819 32.984 157.123 33.272 156.307 33.272Z" fill="black"/>
<circle cx="24.5" cy="22.5" r="15.5" fill="#2F80ED"/>
<circle cx="57" cy="11" r="11" fill="#E9B20A"/>
<circle cx="8" cy="61" r="8" fill="#F65E23"/>
</svg>
