<svg width="136" height="88" viewBox="0 0 136 88" fill="none" xmlns="http://www.w3.org/2000/svg">
<path d="M49.2014 48.4H62.1134V52H44.2094V48.4L56.9774 29.248H44.3054V25.696H62.0174V29.248L49.2014 48.4ZM66.1491 38.752C66.1491 36.064 66.6931 33.712 67.7811 31.696C68.8691 29.648 70.3571 28.064 72.2451 26.944C74.1651 25.824 76.2931 25.264 78.6291 25.264C80.9331 25.264 82.9331 25.76 84.6291 26.752C86.3251 27.744 87.5891 28.992 88.4211 30.496V25.696H92.8371V52H88.4211V47.104C87.5571 48.64 86.2611 49.92 84.5331 50.944C82.8371 51.936 80.8531 52.432 78.5811 52.432C76.2451 52.432 74.1331 51.856 72.2451 50.704C70.3571 49.552 68.8691 47.936 67.7811 45.856C66.6931 43.776 66.1491 41.408 66.1491 38.752ZM88.4211 38.8C88.4211 36.816 88.0211 35.088 87.2211 33.616C86.4211 32.144 85.3331 31.024 83.9571 30.256C82.6131 29.456 81.1251 29.056 79.4931 29.056C77.8611 29.056 76.3731 29.44 75.0291 30.208C73.6851 30.976 72.6131 32.096 71.8131 33.568C71.0131 35.04 70.6131 36.768 70.6131 38.752C70.6131 40.768 71.0131 42.528 71.8131 44.032C72.6131 45.504 73.6851 46.64 75.0291 47.44C76.3731 48.208 77.8611 48.592 79.4931 48.592C81.1251 48.592 82.6131 48.208 83.9571 47.44C85.3331 46.64 86.4211 45.504 87.2211 44.032C88.0211 42.528 88.4211 40.784 88.4211 38.8ZM105.547 29.296V44.8C105.547 46.08 105.819 46.992 106.363 47.536C106.907 48.048 107.851 48.304 109.195 48.304H112.411V52H108.475C106.043 52 104.219 51.44 103.003 50.32C101.787 49.2 101.179 47.36 101.179 44.8V29.296H97.7706V25.696H101.179V19.072H105.547V25.696H112.411V29.296H105.547ZM119.959 21.424C119.127 21.424 118.423 21.136 117.847 20.56C117.271 19.984 116.983 19.28 116.983 18.448C116.983 17.616 117.271 16.912 117.847 16.336C118.423 15.76 119.127 15.472 119.959 15.472C120.759 15.472 121.431 15.76 121.975 16.336C122.551 16.912 122.839 17.616 122.839 18.448C122.839 19.28 122.551 19.984 121.975 20.56C121.431 21.136 120.759 21.424 119.959 21.424ZM122.071 25.696V52H117.703V25.696H122.071Z" fill="#666666"/>
<path d="M53.88 70.16H48.06L47.06 73H44.68L49.66 59.08H52.3L57.28 73H54.88L53.88 70.16ZM53.24 68.3L50.98 61.84L48.7 68.3H53.24ZM68.4253 59.1V60.96H64.7253V73H62.4453V60.96H58.7253V59.1H68.4253ZM77.0744 73.14C75.781 73.14 74.5877 72.84 73.4944 72.24C72.4144 71.6267 71.5544 70.78 70.9144 69.7C70.2877 68.6067 69.9744 67.38 69.9744 66.02C69.9744 64.66 70.2877 63.44 70.9144 62.36C71.5544 61.28 72.4144 60.44 73.4944 59.84C74.5877 59.2267 75.781 58.92 77.0744 58.92C78.381 58.92 79.5744 59.2267 80.6544 59.84C81.7477 60.44 82.6077 61.28 83.2344 62.36C83.861 63.44 84.1744 64.66 84.1744 66.02C84.1744 67.38 83.861 68.6067 83.2344 69.7C82.6077 70.78 81.7477 71.6267 80.6544 72.24C79.5744 72.84 78.381 73.14 77.0744 73.14ZM77.0744 71.16C77.9944 71.16 78.8144 70.9533 79.5344 70.54C80.2544 70.1133 80.8144 69.5133 81.2144 68.74C81.6277 67.9533 81.8344 67.0467 81.8344 66.02C81.8344 64.9933 81.6277 64.0933 81.2144 63.32C80.8144 62.5467 80.2544 61.9533 79.5344 61.54C78.8144 61.1267 77.9944 60.92 77.0744 60.92C76.1544 60.92 75.3344 61.1267 74.6144 61.54C73.8944 61.9533 73.3277 62.5467 72.9144 63.32C72.5144 64.0933 72.3144 64.9933 72.3144 66.02C72.3144 67.0467 72.5144 67.9533 72.9144 68.74C73.3277 69.5133 73.8944 70.1133 74.6144 70.54C75.3344 70.9533 76.1544 71.16 77.0744 71.16ZM101.058 59.1V73H98.778V63.48L94.538 73H92.958L88.698 63.48V73H86.418V59.1H88.878L93.758 70L98.618 59.1H101.058ZM106.335 59.1V73H104.055V59.1H106.335ZM108.568 66.02C108.568 64.66 108.881 63.44 109.508 62.36C110.148 61.28 111.008 60.44 112.088 59.84C113.181 59.2267 114.375 58.92 115.668 58.92C117.148 58.92 118.461 59.2867 119.608 60.02C120.768 60.74 121.608 61.7667 122.128 63.1H119.388C119.028 62.3667 118.528 61.82 117.888 61.46C117.248 61.1 116.508 60.92 115.668 60.92C114.748 60.92 113.928 61.1267 113.208 61.54C112.488 61.9533 111.921 62.5467 111.508 63.32C111.108 64.0933 110.908 64.9933 110.908 66.02C110.908 67.0467 111.108 67.9467 111.508 68.72C111.921 69.4933 112.488 70.0933 113.208 70.52C113.928 70.9333 114.748 71.14 115.668 71.14C116.508 71.14 117.248 70.96 117.888 70.6C118.528 70.24 119.028 69.6933 119.388 68.96H122.128C121.608 70.2933 120.768 71.32 119.608 72.04C118.461 72.76 117.148 73.12 115.668 73.12C114.361 73.12 113.168 72.82 112.088 72.22C111.008 71.6067 110.148 70.76 109.508 69.68C108.881 68.6 108.568 67.38 108.568 66.02Z" fill="#BDBDBD"/>
<path fill-rule="evenodd" clip-rule="evenodd" d="M30.344 18.6602L27.1804 45.1861L24.2731 44.8393L27.4367 18.3135L30.344 18.6602Z" fill="#666666"/>
<path fill-rule="evenodd" clip-rule="evenodd" d="M27.0764 20.8562L45.0764 8.97161L46.6896 11.415L28.6896 23.2995L27.0764 20.8562Z" fill="#666666"/>
<path d="M38.0076 19.3198C39.3815 24.4471 36.3388 29.7173 31.2115 31.0911C26.0842 32.4649 20.814 29.4222 19.4402 24.2949C18.0663 19.1677 21.109 13.8975 26.2363 12.5236C31.3636 11.1498 36.6338 14.1925 38.0076 19.3198Z" fill="#E7F9FD"/>
<path fill-rule="evenodd" clip-rule="evenodd" d="M30.4537 28.263C34.019 27.3076 36.1349 23.6429 35.1795 20.0776C34.2242 16.5123 30.5594 14.3964 26.9941 15.3518C23.4288 16.3071 21.3129 19.9718 22.2683 23.5371C23.2236 27.1025 26.8884 29.2183 30.4537 28.263ZM31.2115 31.0911C36.3388 29.7173 39.3815 24.4471 38.0076 19.3198C36.6338 14.1925 31.3636 11.1498 26.2363 12.5236C21.109 13.8975 18.0663 19.1677 19.4402 24.2949C20.814 29.4222 26.0842 32.4649 31.2115 31.0911Z" fill="#666666"/>
<path d="M51.7366 9.13428C52.7116 12.773 50.5522 16.5131 46.9135 17.4881C43.2748 18.4631 39.5347 16.3037 38.5597 12.665C37.5846 9.02632 39.744 5.28618 43.3827 4.3112C47.0214 3.33621 50.7616 5.49558 51.7366 9.13428Z" fill="#E5E5E5"/>
<path fill-rule="evenodd" clip-rule="evenodd" d="M46.1557 14.66C48.2325 14.1035 49.4649 11.9688 48.9084 9.89208C48.352 7.81531 46.2173 6.58286 44.1405 7.13933C42.0638 7.6958 40.8313 9.83046 41.3878 11.9072C41.9443 13.984 44.0789 15.2165 46.1557 14.66ZM46.9135 17.4881C50.5522 16.5131 52.7116 12.773 51.7366 9.13428C50.7616 5.49558 47.0214 3.33621 43.3827 4.3112C39.744 5.28618 37.5846 9.02632 38.5597 12.665C39.5347 16.3037 43.2748 18.4631 46.9135 17.4881Z" fill="#666666"/>
<path d="M30.6418 39.6696C31.3509 42.316 29.7805 45.0361 27.1341 45.7451C24.4878 46.4542 21.7677 44.8838 21.0586 42.2375C20.3495 39.5911 21.9199 36.871 24.5663 36.1619C27.2126 35.4529 29.9327 37.0233 30.6418 39.6696Z" fill="#FDF8E7"/>
<path fill-rule="evenodd" clip-rule="evenodd" d="M26.3763 42.917C27.4607 42.6265 28.1042 41.5118 27.8137 40.4274C27.5231 39.343 26.4085 38.6995 25.3241 38.9901C24.2397 39.2806 23.5962 40.3953 23.8867 41.4797C24.1773 42.5641 25.2919 43.2076 26.3763 42.917ZM27.1341 45.7451C29.7805 45.0361 31.3509 42.316 30.6418 39.6696C29.9327 37.0233 27.2126 35.4529 24.5663 36.1619C21.9199 36.871 20.3495 39.5911 21.0586 42.2375C21.7677 44.8838 24.4878 46.4542 27.1341 45.7451Z" fill="#666666"/>
<path d="M14.9423 16.2647C15.9173 19.9034 13.758 23.6435 10.1193 24.6185C6.48056 25.5935 2.74041 23.4341 1.7654 19.7954C0.790397 16.1567 2.94976 12.4166 6.58847 11.4416C10.2272 10.4666 13.9673 12.626 14.9423 16.2647Z" fill="#E5E5E5"/>
<path fill-rule="evenodd" clip-rule="evenodd" d="M9.36146 21.7904C11.4382 21.2339 12.6707 19.0993 12.1142 17.0225C11.5577 14.9457 9.42305 13.7133 7.34627 14.2697C5.2695 14.8262 4.03706 16.9609 4.59354 19.0376C5.15002 21.1144 7.28469 22.3469 9.36146 21.7904ZM10.1193 24.6185C13.758 23.6435 15.9173 19.9034 14.9423 16.2647C13.9673 12.626 10.2272 10.4666 6.58847 11.4416C2.94976 12.4166 0.790397 16.1567 1.7654 19.7954C2.74041 23.4341 6.48056 25.5935 10.1193 24.6185Z" fill="#666666"/>
</svg>
